<svg width="364" height="89" viewBox="0 0 364 89" fill="none" xmlns="http://www.w3.org/2000/svg">
<path d="M118.238 71H115.918L112.191 65.832C111.277 66.6523 110.305 67.4258 109.273 68.1523C108.266 68.8555 107.199 69.4766 106.074 70.0156C104.949 70.5312 103.789 70.9414 102.594 71.2461C101.422 71.5508 100.227 71.7031 99.0078 71.7031C96.3594 71.7031 93.8633 71.2109 91.5195 70.2266C89.1992 69.2188 87.1602 67.8359 85.4023 66.0781C83.668 64.2969 82.2969 62.1992 81.2891 59.7852C80.2812 57.3477 79.7773 54.6992 79.7773 51.8398C79.7773 49.0039 80.2812 46.3672 81.2891 43.9297C82.2969 41.4922 83.668 39.3828 85.4023 37.6016C87.1602 35.8203 89.1992 34.4258 91.5195 33.418C93.8633 32.4102 96.3594 31.9062 99.0078 31.9062C99.8516 31.9062 100.719 31.9766 101.609 32.1172C102.523 32.2578 103.402 32.4922 104.246 32.8203C105.113 33.125 105.922 33.5352 106.672 34.0508C107.422 34.5664 108.055 35.1992 108.57 35.9492V18.3711H118.238V71ZM108.57 51.8398C108.57 50.5273 108.312 49.2617 107.797 48.043C107.305 46.8008 106.625 45.7109 105.758 44.7734C104.891 43.8125 103.871 43.0508 102.699 42.4883C101.551 41.9023 100.32 41.6094 99.0078 41.6094C97.6953 41.6094 96.4531 41.8438 95.2812 42.3125C94.1328 42.7812 93.125 43.4609 92.2578 44.3516C91.4141 45.2188 90.7461 46.2852 90.2539 47.5508C89.7617 48.8164 89.5156 50.2461 89.5156 51.8398C89.5156 53.2227 89.7617 54.5352 90.2539 55.7773C90.7461 57.0195 91.4141 58.1094 92.2578 59.0469C93.125 59.9844 94.1328 60.7227 95.2812 61.2617C96.4531 61.8008 97.6953 62.0703 99.0078 62.0703C100.32 62.0703 101.551 61.7891 102.699 61.2266C103.871 60.6406 104.891 59.8789 105.758 58.9414C106.625 57.9805 107.305 56.8906 107.797 55.6719C108.312 54.4297 108.57 53.1523 108.57 51.8398ZM162.043 71H159.723L155.996 65.832C155.082 66.6523 154.109 67.4258 153.078 68.1523C152.07 68.8555 151.004 69.4766 149.879 70.0156C148.754 70.5312 147.594 70.9414 146.398 71.2461C145.227 71.5508 144.031 71.7031 142.812 71.7031C140.164 71.7031 137.668 71.2578 135.324 70.3672C133.004 69.4766 130.965 68.1875 129.207 66.5C127.473 64.7891 126.102 62.7031 125.094 60.2422C124.086 57.7812 123.582 54.9805 123.582 51.8398C123.582 48.9102 124.086 46.2266 125.094 43.7891C126.102 41.3281 127.473 39.2188 129.207 37.4609C130.965 35.7031 133.004 34.3438 135.324 33.3828C137.668 32.3984 140.164 31.9062 142.812 31.9062C144.031 31.9062 145.238 32.0586 146.434 32.3633C147.629 32.668 148.789 33.0898 149.914 33.6289C151.039 34.168 152.105 34.8008 153.113 35.5273C154.145 36.2539 155.105 37.0391 155.996 37.8828L159.723 33.418H162.043V71ZM152.375 51.8398C152.375 50.5273 152.117 49.2617 151.602 48.043C151.109 46.8008 150.43 45.7109 149.562 44.7734C148.695 43.8125 147.676 43.0508 146.504 42.4883C145.355 41.9023 144.125 41.6094 142.812 41.6094C141.5 41.6094 140.258 41.832 139.086 42.2773C137.938 42.7227 136.93 43.3789 136.062 44.2461C135.219 45.1133 134.551 46.1914 134.059 47.4805C133.566 48.7461 133.32 50.1992 133.32 51.8398C133.32 53.4805 133.566 54.9453 134.059 56.2344C134.551 57.5 135.219 58.5664 136.062 59.4336C136.93 60.3008 137.938 60.957 139.086 61.4023C140.258 61.8477 141.5 62.0703 142.812 62.0703C144.125 62.0703 145.355 61.7891 146.504 61.2266C147.676 60.6406 148.695 59.8789 149.562 58.9414C150.43 57.9805 151.109 56.8906 151.602 55.6719C152.117 54.4297 152.375 53.1523 152.375 51.8398ZM188.27 71C185.949 71 183.77 70.5664 181.73 69.6992C179.691 68.8086 177.898 67.6016 176.352 66.0781C174.828 64.5312 173.621 62.7383 172.73 60.6992C171.863 58.6602 171.43 56.4805 171.43 54.1602V42.9805H166.754V33.418H171.43V18.3711H180.992V33.418H195.547V42.9805H180.992V54.1602C180.992 55.168 181.18 56.1172 181.555 57.0078C181.93 57.875 182.445 58.6367 183.102 59.293C183.758 59.9492 184.531 60.4766 185.422 60.875C186.312 61.25 187.262 61.4375 188.27 61.4375H195.547V71H188.27ZM237.418 71H235.098L231.371 65.832C230.457 66.6523 229.484 67.4258 228.453 68.1523C227.445 68.8555 226.379 69.4766 225.254 70.0156C224.129 70.5312 222.969 70.9414 221.773 71.2461C220.602 71.5508 219.406 71.7031 218.188 71.7031C215.539 71.7031 213.043 71.2578 210.699 70.3672C208.379 69.4766 206.34 68.1875 204.582 66.5C202.848 64.7891 201.477 62.7031 200.469 60.2422C199.461 57.7812 198.957 54.9805 198.957 51.8398C198.957 48.9102 199.461 46.2266 200.469 43.7891C201.477 41.3281 202.848 39.2188 204.582 37.4609C206.34 35.7031 208.379 34.3438 210.699 33.3828C213.043 32.3984 215.539 31.9062 218.188 31.9062C219.406 31.9062 220.613 32.0586 221.809 32.3633C223.004 32.668 224.164 33.0898 225.289 33.6289C226.414 34.168 227.48 34.8008 228.488 35.5273C229.52 36.2539 230.48 37.0391 231.371 37.8828L235.098 33.418H237.418V71ZM227.75 51.8398C227.75 50.5273 227.492 49.2617 226.977 48.043C226.484 46.8008 225.805 45.7109 224.938 44.7734C224.07 43.8125 223.051 43.0508 221.879 42.4883C220.73 41.9023 219.5 41.6094 218.188 41.6094C216.875 41.6094 215.633 41.832 214.461 42.2773C213.312 42.7227 212.305 43.3789 211.438 44.2461C210.594 45.1133 209.926 46.1914 209.434 47.4805C208.941 48.7461 208.695 50.1992 208.695 51.8398C208.695 53.4805 208.941 54.9453 209.434 56.2344C209.926 57.5 210.594 58.5664 211.438 59.4336C212.305 60.3008 213.312 60.957 214.461 61.4023C215.633 61.8477 216.875 62.0703 218.188 62.0703C219.5 62.0703 220.73 61.7891 221.879 61.2266C223.051 60.6406 224.07 59.8789 224.938 58.9414C225.805 57.9805 226.484 56.8906 226.977 55.6719C227.492 54.4297 227.75 53.1523 227.75 51.8398ZM272.434 66.6055C271.66 67.3086 270.828 67.9766 269.938 68.6094C269.07 69.2188 268.156 69.7578 267.195 70.2266C266.234 70.6719 265.238 71.0234 264.207 71.2812C263.199 71.5625 262.168 71.7031 261.113 71.7031C258.793 71.7031 256.613 71.293 254.574 70.4727C252.535 69.6523 250.742 68.4922 249.195 66.9922C247.672 65.4688 246.465 63.6289 245.574 61.4727C244.707 59.293 244.273 56.8555 244.273 54.1602V33.3477H253.836V54.1602C253.836 55.4258 254.023 56.5625 254.398 57.5703C254.797 58.5547 255.324 59.3867 255.98 60.0664C256.637 60.7461 257.398 61.2617 258.266 61.6133C259.156 61.9648 260.105 62.1406 261.113 62.1406C262.098 62.1406 263.023 61.918 263.891 61.4727C264.781 61.0039 265.555 60.3945 266.211 59.6445C266.867 58.8945 267.383 58.0508 267.758 57.1133C268.133 56.1523 268.32 55.168 268.32 54.1602V33.3477H277.918V71H275.598L272.434 66.6055ZM294.863 71H285.266V33.3477H287.586L290.75 37.0039C292.297 35.5977 294.043 34.5195 295.988 33.7695C297.957 32.9961 300.008 32.6094 302.141 32.6094C304.438 32.6094 306.605 33.0547 308.645 33.9453C310.684 34.8125 312.465 36.0195 313.988 37.5664C315.512 39.0898 316.707 40.8828 317.574 42.9453C318.465 44.9844 318.91 47.1641 318.91 49.4844V71H309.312V49.4844C309.312 48.5 309.125 47.5742 308.75 46.707C308.375 45.8164 307.859 45.043 307.203 44.3867C306.547 43.7305 305.785 43.2148 304.918 42.8398C304.051 42.4648 303.125 42.2773 302.141 42.2773C301.133 42.2773 300.184 42.4648 299.293 42.8398C298.402 43.2148 297.629 43.7305 296.973 44.3867C296.316 45.043 295.801 45.8164 295.426 46.707C295.051 47.5742 294.863 48.5 294.863 49.4844V71ZM362.152 51.8398C362.152 54.6523 361.648 57.2773 360.641 59.7148C359.633 62.1289 358.262 64.2266 356.527 66.0078C354.793 67.7656 352.754 69.1602 350.41 70.1914C348.09 71.1992 345.594 71.7031 342.922 71.7031C340.273 71.7031 337.777 71.1992 335.434 70.1914C333.113 69.1602 331.074 67.7656 329.316 66.0078C327.582 64.2266 326.211 62.1289 325.203 59.7148C324.195 57.2773 323.691 54.6523 323.691 51.8398C323.691 48.9805 324.195 46.332 325.203 43.8945C326.211 41.457 327.582 39.3594 329.316 37.6016C331.074 35.8203 333.113 34.4258 335.434 33.418C337.777 32.4102 340.273 31.9062 342.922 31.9062C345.594 31.9062 348.09 32.3867 350.41 33.3477C352.754 34.2852 354.793 35.6328 356.527 37.3906C358.262 39.125 359.633 41.2227 360.641 43.6836C361.648 46.1211 362.152 48.8398 362.152 51.8398ZM352.484 51.8398C352.484 50.293 352.227 48.8984 351.711 47.6562C351.219 46.3906 350.539 45.3125 349.672 44.4219C348.805 43.5078 347.785 42.8164 346.613 42.3477C345.465 41.8555 344.234 41.6094 342.922 41.6094C341.609 41.6094 340.367 41.8555 339.195 42.3477C338.047 42.8164 337.039 43.5078 336.172 44.4219C335.328 45.3125 334.66 46.3906 334.168 47.6562C333.676 48.8984 333.43 50.293 333.43 51.8398C333.43 53.293 333.676 54.6406 334.168 55.8828C334.66 57.125 335.328 58.2031 336.172 59.1172C337.039 60.0312 338.047 60.7578 339.195 61.2969C340.367 61.8125 341.609 62.0703 342.922 62.0703C344.234 62.0703 345.465 61.8242 346.613 61.332C347.785 60.8398 348.805 60.1484 349.672 59.2578C350.539 58.3672 351.219 57.2891 351.711 56.0234C352.227 54.7578 352.484 53.3633 352.484 51.8398Z" fill="black"/>
<path d="M49.6123 30.4355L54.0609 44.3318L34.5048 50.5474L19.7017 49.9558L19.7017 40.0971L49.6123 30.4355Z" fill="#05DC8B"/>
<rect x="47.873" y="61.8806" width="14.5909" height="28.1584" transform="rotate(141.791 47.873 61.8806)" fill="#55C6FF"/>
<path d="M5.9136 61.9011L17.3786 70.926L27.2085 58.6317L26.8146 48.1814L23.857 38.9142L5.9136 61.9011Z" fill="#584DE2"/>
<rect x="20" y="19" width="14" height="27" fill="#FED812"/>
<path d="M4.44824 30.4355L-0.00034831 44.3318L30.142 53.9812L30.6849 38.921L4.44824 30.4355Z" fill="#9A71FF"/>
<path d="M25.2704 38.8199L21.3117 40.3161V35.4534L27.3588 32.5546H31.5045V54H25.2704V38.8199Z" fill="white"/>
</svg>
